<?xml version="1.0" encoding="UTF-8" standalone="no"?>
<!-- Created with Inkscape (http://www.inkscape.org/) -->

<svg
   xmlns:dc="http://purl.org/dc/elements/1.1/"
   xmlns:cc="http://creativecommons.org/ns#"
   xmlns:rdf="http://www.w3.org/1999/02/22-rdf-syntax-ns#"
   xmlns:svg="http://www.w3.org/2000/svg"
   xmlns="http://www.w3.org/2000/svg"
   xmlns:sodipodi="http://sodipodi.sourceforge.net/DTD/sodipodi-0.dtd"
   xmlns:inkscape="http://www.inkscape.org/namespaces/inkscape"
   width="105.83334mm"
   height="117.04951mm"
   viewBox="0 0 105.83334 117.04951"
   version="1.1"
   id="svg8"
   inkscape:version="0.92.3 (2405546, 2018-03-11)"
   sodipodi:docname="img12block.svg">
  <defs
     id="defs2">















	

		
	
			
			
		</defs>
  <sodipodi:namedview
     id="base"
     pagecolor="#ffffff"
     bordercolor="#666666"
     borderopacity="1.0"
     inkscape:pageopacity="0.0"
     inkscape:pageshadow="2"
     inkscape:zoom="0.84234212"
     inkscape:cx="200.00001"
     inkscape:cy="221.19592"
     inkscape:document-units="mm"
     inkscape:current-layer="layer1"
     showgrid="false"
     fit-margin-top="0"
     fit-margin-left="0"
     fit-margin-right="0"
     fit-margin-bottom="0"
     inkscape:window-width="1366"
     inkscape:window-height="704"
     inkscape:window-x="0"
     inkscape:window-y="27"
     inkscape:window-maximized="1" />
  <metadata
     id="metadata5">
    <rdf:RDF>
      <cc:Work
         rdf:about="">
        <dc:format>image/svg+xml</dc:format>
        <dc:type
           rdf:resource="http://purl.org/dc/dcmitype/StillImage" />
        <dc:title></dc:title>
      </cc:Work>
    </rdf:RDF>
  </metadata>
  <g
     inkscape:label="Layer 1"
     inkscape:groupmode="layer"
     id="layer1"
     transform="translate(-28.87738,-43.727874)">
    <path
       id="path97"
       style="stroke-width:0.26458332"
       d="m 130.47739,67.644052 h -8.46667 v -8.466666 h 8.46667 z m 0,12.7 h -8.46667 v -8.466667 h 8.46667 z m 0,12.7 h -8.46667 v -8.466667 h 8.46667 z m 0,12.699998 h -8.46667 v -8.466665 h 8.46667 z m 0,12.7 h -8.46667 v -8.46667 h 8.46667 z m 0,12.7 h -8.46667 v -8.46667 h 8.46667 z m 0,12.7 h -8.46667 v -8.46667 h 8.46667 z m 0,12.7 h -8.46667 v -8.46667 h 8.46667 z m -12.7,-88.899998 h -8.46667 v -8.466666 h 8.46667 z m 0,12.7 h -8.46667 v -8.466667 h 8.46667 z m 0,12.7 h -8.46667 v -8.466667 h 8.46667 z m 0,12.699998 h -8.46667 v -8.466665 h 8.46667 z m 0,12.7 h -8.46667 v -8.46667 h 8.46667 z m 0,12.7 h -8.46667 v -8.46667 h 8.46667 z m 0,12.7 h -8.46667 v -8.46667 h 8.46667 z m 0,12.7 h -8.46667 v -8.46667 h 8.46667 z m -12.7,-88.899998 h -8.46667 v -8.466666 h 8.46667 z m 0,12.7 h -8.46667 v -8.466667 h 8.46667 z m 0,12.7 h -8.46667 v -8.466667 h 8.46667 z m 0,12.699998 h -8.46667 v -8.466665 h 8.46667 z m 0,12.7 h -8.46667 v -8.46667 h 8.46667 z m 0,12.7 h -8.46667 v -8.46667 h 8.46667 z m 0,12.7 h -8.46667 v -8.46667 h 8.46667 z m 0,12.7 h -8.46667 v -8.46667 h 8.46667 z M 92.37738,67.644052 h -8.46666 v -8.466666 h 8.46666 z m 0,12.7 h -8.46666 v -8.466667 h 8.46666 z m 0,12.7 h -8.46666 v -8.466667 h 8.46666 z m 0,12.699998 h -8.46666 v -8.466665 h 8.46666 z m 0,12.7 h -8.46666 v -8.46667 h 8.46666 z m 0,12.7 h -8.46666 v -8.46667 h 8.46666 z m 0,12.7 h -8.46666 v -8.46667 h 8.46666 z m 0,12.7 h -8.46666 v -8.46667 h 8.46666 z m -12.7,-88.899998 h -8.46666 v -8.466666 h 8.46666 z m 0,12.7 h -8.46666 v -8.466667 h 8.46666 z m 0,12.7 h -8.46666 v -8.466667 h 8.46666 z m 0,12.699998 h -8.46666 v -8.466665 h 8.46666 z m 0,12.7 h -8.46666 v -8.46667 h 8.46666 z m 0,12.7 h -8.46666 v -8.46667 h 8.46666 z m 0,12.7 h -8.46666 v -8.46667 h 8.46666 z m 0,12.7 h -8.46666 v -8.46667 h 8.46666 z m -12.7,-88.899998 h -8.46666 v -8.466666 h 8.46666 z m 0,12.7 h -8.46666 v -8.466667 h 8.46666 z m 0,12.7 h -8.46666 v -8.466667 h 8.46666 z m 0,12.699998 h -8.46666 v -8.466665 h 8.46666 z m 0,12.7 h -8.46666 v -8.46667 h 8.46666 z m 0,12.7 h -8.46666 v -8.46667 h 8.46666 z m 0,12.7 h -8.46666 v -8.46667 h 8.46666 z m 0,12.7 h -8.46666 v -8.46667 h 8.46666 z m -12.7,-88.899998 h -8.46666 v -8.466666 h 8.46666 z m 0,12.7 h -8.46666 v -8.466667 h 8.46666 z m 0,12.7 h -8.46666 v -8.466667 h 8.46666 z m 0,12.699998 h -8.46666 v -8.466665 h 8.46666 z m 0,12.7 h -8.46666 v -8.46667 h 8.46666 z m 0,12.7 h -8.46666 v -8.46667 h 8.46666 z m 0,12.7 h -8.46666 v -8.46667 h 8.46666 z m 0,12.7 h -8.46666 v -8.46667 h 8.46666 z m -12.7,-88.899998 h -8.46666 v -8.466666 h 8.46666 z m 0,12.7 h -8.46666 v -8.466667 h 8.46666 z m 0,12.7 h -8.46666 v -8.466667 h 8.46666 z m 0,12.699998 h -8.46666 v -8.466665 h 8.46666 z m 0,12.7 h -8.46666 v -8.46667 h 8.46666 z m 0,12.7 h -8.46666 v -8.46667 h 8.46666 z m 0,12.7 h -8.46666 v -8.46667 h 8.46666 z m 0,12.7 h -8.46666 v -8.46667 h 8.46666 z M 134.71072,54.944052 H 28.87738 V 160.77738 h 105.83334 z"
       inkscape:connector-curvature="0" />
    <rect
       style="fill:#666666;fill-opacity:0.50196078;stroke:none;stroke-width:0.09641452;stroke-miterlimit:4;stroke-dasharray:none;stroke-opacity:0.30196078"
       id="rect336"
       width="27.54644"
       height="16.933332"
       x="28.87738"
       y="54.94405" />
    <rect
       style="fill:#999999;fill-opacity:0.50196078;stroke:none;stroke-width:0.10720518;stroke-miterlimit:4;stroke-dasharray:none;stroke-opacity:0.30196078"
       id="rect338"
       width="25.463711"
       height="16.98612"
       x="56.430553"
       y="54.891266" />
    <rect
       style="fill:#ececec;fill-opacity:0.50196078;stroke:none;stroke-width:0.09466934;stroke-miterlimit:4;stroke-dasharray:none;stroke-opacity:0.30196078"
       id="rect340"
       width="27.183849"
       height="16.970266"
       x="81.874107"
       y="54.907116" />
    <text
       xml:space="preserve"
       style="font-style:normal;font-weight:normal;font-size:10.58333302px;line-height:1.25;font-family:sans-serif;letter-spacing:0px;word-spacing:0px;fill:#000000;fill-opacity:1;stroke:none;stroke-width:0.26458332"
       x="38.577103"
       y="51.732552"
       id="text344"><tspan
         sodipodi:role="line"
         id="tspan342"
         x="38.577103"
         y="51.732552"
         style="stroke-width:0.26458332">x1</tspan></text>
    <text
       xml:space="preserve"
       style="font-style:normal;font-weight:normal;font-size:10.58333302px;line-height:1.25;font-family:sans-serif;letter-spacing:0px;word-spacing:0px;fill:#000000;fill-opacity:1;stroke:none;stroke-width:0.26458332"
       x="63.557663"
       y="51.732552"
       id="text344-3"><tspan
         sodipodi:role="line"
         id="tspan342-6"
         x="63.557663"
         y="51.732552"
         style="stroke-width:0.26458332">x2</tspan></text>
    <text
       xml:space="preserve"
       style="font-style:normal;font-weight:normal;font-size:10.58333302px;line-height:1.25;font-family:sans-serif;letter-spacing:0px;word-spacing:0px;fill:#000000;fill-opacity:1;stroke:none;stroke-width:0.26458332"
       x="88.51339"
       y="51.582691"
       id="text344-3-7"><tspan
         sodipodi:role="line"
         id="tspan342-6-5"
         x="88.51339"
         y="51.582691"
         style="stroke-width:0.26458332">x3</tspan></text>
  </g>
</svg>
